<mxfile host="app.diagrams.net" modified="2023-11-13T01:45:21.149Z" agent="Mozilla/5.0 (Windows NT 10.0; Win64; x64) AppleWebKit/537.36 (KHTML, like Gecko) Chrome/117.0.0.0 Safari/537.36" version="22.1.0" etag="OO4n8fvbqZHJrZlTFqqJ" type="github">
  <diagram name="Page-1" id="WtKsQji69t2nsG0oa6-J">
    <mxGraphModel>
      <root>
        <mxCell id="0" />
        <mxCell id="1" parent="0" />
      </root>
    </mxGraphModel>
  </diagram>
</mxfile>
